
<svg xmlns="http://www.w3.org/2000/svg" xmlns:xlink="http://www.w3.org/1999/xlink" view-box="0 0 48 48">
  <defs/>
  <g>
    <path stroke="none" fill="#FFFFFF" d="M43.15 24.2 Q43.15 25.15 42.2 25.7 L42.15 25.75 42.1 25.75 35.55 29.35 31 24.7 36.4 19.45 42.1 22.65 42.2 22.7 Q43.15 23.25 43.15 24.2 M35.1 18.7 L30 23.65 13.3 6.5 13.6 6.6 13.7 6.65 35.1 18.7 M11.5 6.7 L29 24.65 11.7 41.5 11.7 41.45 Q10.85 41 10.85 39.9 L10.9 8.2 10.9 8.05 Q10.95 7.15 11.5 6.7 M30 25.7 L34.2 30.05 14.25 41 30 25.7"/>
  </g>
</svg>